HIERARCHY
ROOT Hips
{
	OFFSET 0.000000 0.000000 0.000000
	CHANNELS 6 Xposition Yposition Zposition Zrotation Yrotation Xrotation 
	JOINT LeftUpLeg_virtual
	{
		OFFSET 0.000000 0.000000 0.000000
		CHANNELS 3 Zrotation Yrotation Xrotation
		JOINT LeftUpLeg
		{
			OFFSET 10.205400 -3.823500 0.155100
			CHANNELS 3 Zrotation Yrotation Xrotation
			JOINT LeftLeg
			{
				OFFSET 0.708757 -12.982077 0.567790
				CHANNELS 3 Zrotation Yrotation Xrotation
				JOINT LeftFoot
				{
					OFFSET -0.708756 -10.717838 -2.184338
					CHANNELS 3 Zrotation Yrotation Xrotation
					JOINT LeftToeBase
					{
						OFFSET 0.108149 -7.191104 7.560241
						CHANNELS 3 Zrotation Yrotation Xrotation
						End Site
						{
							OFFSET 0.000000 0.000000 0.000000
						}
					}
				}
			}
		}
	}
	JOINT RightUpLeg_virtual
	{
		OFFSET 0.000000 0.000000 0.000000
		CHANNELS 3 Zrotation Yrotation Xrotation
		JOINT RightUpLeg
		{
			OFFSET -10.205400 -3.823500 0.005500
			CHANNELS 3 Zrotation Yrotation Xrotation
			JOINT RightLeg
			{
				OFFSET -0.708756 -12.982134 0.610632
				CHANNELS 3 Zrotation Yrotation Xrotation
				JOINT RightFoot
				{
					OFFSET 0.708754 -10.717769 -1.945823
					CHANNELS 3 Zrotation Yrotation Xrotation
					JOINT RightToeBase
					{
						OFFSET -0.108140 -7.191069 7.372968
						CHANNELS 3 Zrotation Yrotation Xrotation
						End Site
						{
							OFFSET 0.000000 0.000000 0.000000
						}
					}
				}
			}
		}
	}
	JOINT Spine_virtual
	{
		OFFSET 0.000000 0.000000 0.000000
		CHANNELS 3 Zrotation Yrotation Xrotation
		JOINT Spine
		{
			OFFSET 0.000000 6.876099 0.125700
			CHANNELS 3 Zrotation Yrotation Xrotation
			JOINT Spine1
			{
				OFFSET 0.000000 8.022060 0.146608
				CHANNELS 3 Zrotation Yrotation Xrotation
				JOINT Spine2
				{
					OFFSET 0.000000 9.168068 0.167552
					CHANNELS 3 Zrotation Yrotation Xrotation
					JOINT Neck_virtual
					{
						OFFSET 0.000000 0.000000 0.000000
						CHANNELS 3 Zrotation Yrotation Xrotation
						JOINT Neck
						{
							OFFSET 0.000000 10.314075 0.188496
							CHANNELS 3 Zrotation Yrotation Xrotation
							JOINT Head
							{
								OFFSET 0.000000 7.643700 -2.377400
								CHANNELS 3 Zrotation Yrotation Xrotation
								End Site
								{
									OFFSET 0.000000 0.000000 0.000000
								}
							}
						}
					}
					JOINT LeftShoulder_virtual
					{
						OFFSET 0.000000 0.000000 0.000000
						CHANNELS 3 Zrotation Yrotation Xrotation
						JOINT LeftShoulder
						{
							OFFSET 4.392200 8.824978 0.174984
							CHANNELS 3 Zrotation Yrotation Xrotation
							JOINT LeftArm
							{
								OFFSET 8.771219 -2.981674 -0.026999
								CHANNELS 3 Zrotation Yrotation Xrotation
								JOINT LeftForeArm
								{
									OFFSET 8.512804 0.000000 -0.000000
									CHANNELS 3 Zrotation Yrotation Xrotation
									JOINT LeftHand
									{
										OFFSET 18.484802 0.000000 -0.000000
										CHANNELS 3 Zrotation Yrotation Xrotation
										End Site
										{
											OFFSET 0.000000 0.000000 0.000000
										}
									}
								}
							}
						}
					}
					JOINT RightShoulder_virtual
					{
						OFFSET 0.000000 0.000000 0.000000
						CHANNELS 3 Zrotation Yrotation Xrotation
						JOINT RightShoulder
						{
							OFFSET -4.392200 8.824993 0.141379
							CHANNELS 3 Zrotation Yrotation Xrotation
							JOINT RightArm
							{
								OFFSET -8.771282 -2.981682 -0.094208
								CHANNELS 3 Zrotation Yrotation Xrotation
								JOINT RightForeArm
								{
									OFFSET -8.494598 0.000000 0.000000
									CHANNELS 3 Zrotation Yrotation Xrotation
									JOINT RightHand
									{
										OFFSET -18.483803 0.000000 0.000001
										CHANNELS 3 Zrotation Yrotation Xrotation
										End Site
										{
											OFFSET 0.000000 0.000000 0.000000
										}
									}
								}
							}
						}
					}
				}
			}
		}
	}
}
MOTION
Frames: 12
Frame Time: 0.033333
-3.672084 34.025085 23.633148 -179.356246 -73.414343 179.579580 -0.257157 1.746521 18.312144 16.603444 4.797182 -34.539932 5.197438 -1.693511 39.422257 -6.216764 -4.934728 7.125833 0.000000 0.000000 0.000000 5.116810 4.378321 19.107061 -35.065775 -1.397834 -26.542598 1.895756 6.552993 18.681742 12.486135 3.970736 14.799097 0.000000 0.000000 0.000000 3.443068 4.160877 13.594692 12.117184 -0.513203 -0.891870 0.048994 -6.044951 10.015433 -0.034035 -0.011849 0.027934 0.222537 -4.808825 11.791266 2.538111 -5.289390 -11.608481 0.000000 0.000000 0.000000 1.958993 -4.066037 8.476836 -12.351046 -9.520939 4.871221 -36.405373 -27.663589 44.627834 -37.446232 -77.510325 41.054187 0.000000 0.000000 0.000000 -2.186505 -2.815141 8.247555 31.750606 12.679790 -0.800961 47.256283 -2.497191 -7.102373 -3.991896 45.967477 -6.903505 0.000000 0.000000 0.000000 
-3.681864 33.587955 25.397703 -179.869753 -74.587339 -179.781535 -0.571171 1.428515 17.977869 15.111558 3.882091 -36.952932 4.501995 -2.363583 43.389989 -7.039436 -6.885558 3.492667 0.000000 0.000000 0.000000 4.823696 4.061153 18.592934 -37.795204 -2.151233 -24.521407 0.930198 6.409542 16.563730 13.714304 3.964185 15.985279 0.000000 0.000000 0.000000 2.828304 3.938851 13.218220 11.037410 -0.426136 -0.601894 0.012236 -5.698580 10.091844 0.003995 0.036459 0.014943 0.299020 -4.521770 11.828117 2.445692 -5.101457 -11.564706 0.000000 0.000000 0.000000 2.006888 -3.771587 8.571290 -12.206641 -9.568613 4.533793 -36.460342 -28.294822 43.594205 -38.314329 -77.706680 41.754948 0.000000 0.000000 0.000000 -2.133287 -2.471010 8.329079 31.773231 12.402303 -0.817144 48.079863 -3.096055 -6.338530 -4.413357 47.032765 -6.946238 0.000000 0.000000 0.000000 
-3.702168 33.285053 27.085484 178.811279 -76.002247 -178.473471 -0.704331 0.962763 17.616513 12.408489 2.999418 -39.316420 4.270671 -2.093042 47.210179 -6.532118 -7.630132 0.073516 0.000000 0.000000 0.000000 4.906933 3.030980 17.524027 -40.015428 -4.054283 -22.888215 -0.105496 5.818351 16.676457 14.058786 3.789732 15.845865 0.000000 0.000000 0.000000 2.113939 3.652340 12.956814 9.847882 -0.274340 -0.301570 -0.147441 -5.383772 10.231596 0.042583 -0.029462 0.044283 0.280390 -4.180348 11.888327 2.373660 -5.004987 -11.505193 0.000000 0.000000 0.000000 2.010092 -3.373355 8.579431 -11.839885 -9.622581 4.376840 -36.314852 -28.591771 42.687391 -37.273589 -77.972395 40.616963 0.000000 0.000000 0.000000 -2.133558 -2.034517 8.431744 31.759082 12.272195 -0.875520 48.786607 -3.491109 -5.195605 -4.958292 47.950489 -7.029242 0.000000 0.000000 0.000000 
-3.738178 33.178555 28.580002 179.165001 -77.643350 -178.827029 -0.486921 0.485546 17.513723 9.626504 2.222680 -41.011632 4.595119 -1.340876 49.463649 -5.880592 -7.590847 -1.835355 0.000000 0.000000 0.000000 4.836235 2.082295 16.493770 -40.562366 -5.358008 -20.638538 -1.674935 4.292296 17.158661 12.972829 3.068948 15.245163 0.000000 0.000000 0.000000 1.699446 3.206535 12.695552 8.800036 0.072752 -0.074515 -0.234471 -4.980780 10.412395 0.067651 0.008904 0.031874 0.155445 -3.775483 11.966971 2.282258 -5.064002 -11.423101 0.000000 0.000000 0.000000 1.902455 -3.033787 8.631109 -11.161837 -9.792085 4.199418 -36.222508 -28.248430 41.775527 -36.790862 -78.102708 40.071490 0.000000 0.000000 0.000000 -2.233068 -1.584267 8.443172 31.701360 12.006272 -0.976671 49.433371 -3.729756 -3.590221 -5.432873 48.819334 -7.031051 0.000000 0.000000 0.000000 
-3.755707 33.284859 29.803673 178.719481 -79.433495 -178.435291 -0.657320 -0.134602 17.350880 7.143296 1.513145 -42.073965 5.086891 0.116532 49.899969 -4.571416 -6.554682 -2.000352 0.000000 0.000000 0.000000 3.928514 1.220643 15.970734 -39.319111 -6.350270 -19.000441 -1.910177 1.277081 18.942840 10.091143 1.068870 14.266689 0.000000 0.000000 0.000000 1.110955 2.683362 12.451314 7.675980 0.446149 -0.021620 -0.294828 -4.541293 10.588565 0.064554 0.062581 0.030722 0.054873 -3.456839 12.124954 2.289072 -5.091364 -11.348227 0.000000 0.000000 0.000000 1.759597 -2.622150 8.836398 -10.353148 -9.999332 3.808845 -35.994926 -27.401611 41.110328 -35.265172 -78.065989 38.556063 0.000000 0.000000 0.000000 -2.301537 -1.221927 8.512611 31.594474 11.888322 -1.058285 50.046749 -3.949649 -1.478970 -6.071893 49.857430 -7.294887 0.000000 0.000000 0.000000 
-3.752395 33.584518 30.780125 178.845607 -81.389928 -178.666738 -1.180933 -0.665013 17.232286 5.753268 0.429803 -42.402511 5.820549 1.452094 48.669848 -4.066204 -5.620407 -1.379400 0.000000 0.000000 0.000000 2.790021 0.585785 15.772741 -36.287654 -7.139875 -18.010439 -1.613172 -0.030568 21.449383 7.334167 -0.410744 14.020369 0.000000 0.000000 0.000000 0.629754 2.198065 12.273117 6.615923 0.782812 -0.129988 -0.327149 -4.175853 10.777275 0.062431 0.033062 0.024722 -0.058632 -3.113176 12.239501 2.312662 -5.236656 -11.249657 0.000000 0.000000 0.000000 1.660201 -2.229190 8.895494 -9.381454 -10.269547 3.520534 -35.872061 -26.210463 40.530725 -33.493974 -78.071207 36.814668 0.000000 0.000000 0.000000 -2.316804 -0.843651 8.519696 31.543238 11.675815 -1.180638 50.680612 -4.269276 0.958425 -6.698407 51.134587 -7.364839 0.000000 0.000000 0.000000 
-3.757937 34.007298 31.611025 179.180396 -83.274015 -179.060007 -1.883030 -0.876272 17.198392 4.796518 -0.724083 -42.009686 6.568857 2.465162 46.197975 -3.843744 -4.798277 -0.008957 0.000000 0.000000 0.000000 1.916199 0.285687 15.773429 -32.428557 -7.737918 -17.727705 -1.036711 0.149543 24.098854 6.246098 -0.223214 13.596409 0.000000 0.000000 0.000000 0.133707 1.769098 12.142468 5.645008 0.906354 -0.410883 -0.246070 -3.919283 10.940157 0.033273 -0.017410 0.022899 -0.092328 -2.684046 12.276011 2.441092 -5.451566 -11.034031 0.000000 0.000000 0.000000 1.642034 -1.836607 8.942851 -8.446781 -10.680036 3.258783 -36.065981 -24.922860 40.254307 -31.408857 -78.054302 34.766148 0.000000 0.000000 0.000000 -2.295170 -0.503502 8.479417 31.486322 11.460688 -1.314760 51.402320 -4.752312 3.417196 -7.520716 52.742844 -7.838854 0.000000 0.000000 0.000000 
-3.795548 34.472580 32.330742 179.126178 -84.917932 -179.172514 -2.583330 -0.801241 17.140317 4.154442 -1.883110 -41.111622 7.070115 3.373678 42.978921 -3.714447 -4.047638 2.020557 0.000000 0.000000 0.000000 1.383156 -0.159840 15.872586 -28.392810 -7.924460 -18.278208 0.030621 1.053002 26.320740 5.661295 0.625806 12.857520 0.000000 0.000000 0.000000 -0.319221 1.636859 12.204833 4.791190 0.899780 -0.861425 -0.058671 -3.674612 10.958800 0.041862 -0.125530 -0.025146 -0.007510 -2.467452 12.240970 2.733009 -5.766369 -10.712201 0.000000 0.000000 0.000000 1.746337 -1.690728 9.026823 -7.747202 -11.303389 2.972026 -36.725869 -23.516215 40.168493 -29.354859 -78.054842 32.761979 0.000000 0.000000 0.000000 -2.145231 -0.352565 8.452141 31.357665 10.980788 -1.564265 52.163213 -5.304730 5.475255 -8.244662 54.492349 -8.244851 0.000000 0.000000 0.000000 
-3.898819 34.931103 32.959419 178.393695 -85.567606 -178.365746 -3.235117 -0.252009 17.086977 3.656636 -2.730775 -39.992363 7.293440 4.588342 39.369473 -3.616453 -3.483260 4.470265 0.000000 0.000000 0.000000 1.009869 0.116758 15.831837 -24.341331 -8.057070 -18.839004 0.496499 1.197965 27.000921 4.503596 1.021954 12.365970 0.000000 0.000000 0.000000 -0.835938 1.826083 12.035780 4.037836 0.834317 -1.408516 0.124654 -3.604895 11.005769 -0.012898 -0.065689 0.017486 0.234843 -2.356784 12.071611 3.357818 -6.064345 -10.355445 0.000000 0.000000 0.000000 2.013524 -1.539334 8.988229 -7.369628 -11.960436 2.733415 -37.644041 -22.093186 40.241644 -27.547831 -78.107496 30.999630 0.000000 0.000000 0.000000 -1.850075 -0.335801 8.435981 31.077364 10.836428 -1.764980 52.887108 -5.707946 6.978345 -9.195081 56.050841 -9.008606 0.000000 0.000000 0.000000 
-4.065392 35.349224 33.519833 179.704012 -85.657156 -179.772560 -3.607759 0.161785 17.243612 3.239191 -3.334861 -38.360689 7.515481 6.531128 35.958303 -3.302528 -3.082778 6.502631 0.000000 0.000000 0.000000 0.809457 0.414008 15.838801 -20.439121 -7.804450 -19.268734 0.776714 1.412596 27.178228 3.449288 1.313400 11.838657 0.000000 0.000000 0.000000 -1.148952 1.925006 11.947742 3.557383 0.516033 -1.909923 0.372567 -3.448262 11.055286 -0.016823 -0.010165 -0.014980 0.448618 -2.189591 11.980291 4.259359 -6.514963 -10.007872 0.000000 0.000000 0.000000 2.230220 -1.384454 8.990559 -7.239105 -12.586879 2.511858 -38.657105 -20.825143 40.314030 -26.081617 -78.170900 29.575962 0.000000 0.000000 0.000000 -1.635946 -0.215170 8.438607 30.607539 10.507485 -2.111739 53.398542 -5.966301 7.940262 -9.793112 57.152489 -9.454724 0.000000 0.000000 0.000000 
-4.277406 35.700859 33.963326 -179.781056 -85.390533 179.692578 -4.153097 0.233348 17.338135 2.775585 -3.111462 -36.826495 7.627152 7.668283 33.628969 -3.012967 -2.692195 7.499582 0.000000 0.000000 0.000000 0.560509 0.588246 15.804807 -16.837909 -7.238442 -19.745561 0.771626 1.591001 26.971842 2.592585 1.455833 11.350108 0.000000 0.000000 0.000000 -1.327225 2.102433 11.742173 3.323256 0.255390 -2.361491 0.619071 -3.431892 11.157041 0.007457 -0.023250 -0.033787 0.699758 -2.135439 11.892258 5.472982 -7.101954 -9.650412 0.000000 0.000000 0.000000 2.395256 -1.430199 8.997491 -7.324096 -13.274579 2.275039 -39.536188 -19.808664 40.273784 -24.876280 -78.280907 28.432143 0.000000 0.000000 0.000000 -1.432705 -0.282856 8.381895 29.920798 10.258232 -2.405679 53.687841 -5.846196 8.831243 -10.602696 57.778838 -10.128505 0.000000 0.000000 0.000000 
-4.487930 35.976711 34.339634 179.908385 -84.270123 -179.957931 -4.693401 0.593144 17.345407 2.143696 -2.215256 -35.466170 7.573539 8.375131 31.891072 -2.794444 -2.393736 8.008558 0.000000 0.000000 0.000000 0.335264 1.086346 15.719189 -13.397477 -6.382009 -20.350347 0.661340 1.723306 26.652889 2.071570 1.511392 10.888711 0.000000 0.000000 0.000000 -1.480503 2.396751 11.440135 3.273769 0.099243 -2.804746 0.779446 -3.417574 11.316005 -0.016393 -0.010878 -0.014685 0.928852 -2.201982 11.927308 7.070471 -7.705840 -9.292238 0.000000 0.000000 0.000000 2.555920 -1.431780 9.052291 -7.535723 -13.781744 2.154011 -40.114305 -19.001759 40.169907 -24.290176 -78.452386 27.919667 0.000000 0.000000 0.000000 -1.259497 -0.307932 8.438805 29.118865 10.149850 -2.657123 53.768694 -5.524535 9.641956 -11.124496 58.031691 -10.548472 0.000000 0.000000 0.000000 
